<?xml version="1.0" standalone="no"?>
<svg viewBox="0 0 200 200" xmlns="http://www.w3.org/2000/svg">
  <path fill="#08BDBA" d="M32.9,-56.9C39.2,-53.3,38.4,-37.5,41.7,-26C44.9,-14.5,52.2,-7.2,59,3.9C65.7,15,71.9,30.1,64.2,33.8C56.4,37.6,34.7,30,21.7,34.9C8.7,39.7,4.3,56.9,-1.3,59.2C-6.9,61.4,-13.9,48.8,-18.9,39.3C-23.9,29.9,-27,23.6,-31.3,17.6C-35.6,11.6,-41.1,5.8,-43.1,-1.2C-45.1,-8.1,-43.7,-16.2,-43.2,-28.8C-42.7,-41.4,-43.1,-58.5,-36.1,-61.6C-29.1,-64.7,-14.5,-53.9,-0.6,-52.8C13.3,-51.7,26.6,-60.4,32.9,-56.9Z" transform="translate(100 100)" />
</svg>
